<svg width="149" height="26" viewBox="0 0 149 26" fill="none" xmlns="http://www.w3.org/2000/svg">
<path d="M11.3182 7.54545V11.1818H0.545455V7.54545H11.3182ZM3.01136 25V6.28409C3.01136 5.01894 3.25758 3.9697 3.75 3.13636C4.25 2.30303 4.93182 1.67803 5.79545 1.26136C6.65909 0.844695 7.64015 0.636362 8.73864 0.636362C9.48106 0.636362 10.1591 0.693181 10.7727 0.806818C11.3939 0.920454 11.8561 1.02273 12.1591 1.11364L11.2955 4.75C11.1061 4.68939 10.8712 4.63257 10.5909 4.57954C10.3182 4.52651 10.0379 4.5 9.75 4.5C9.03788 4.5 8.54167 4.66667 8.26136 5C7.98106 5.32576 7.84091 5.78409 7.84091 6.375V25H3.01136ZM25.4688 17.5682V7.54545H30.3097V25H25.6619V21.8295H25.4801C25.0862 22.8523 24.4309 23.6742 23.5142 24.2955C22.6051 24.9167 21.4953 25.2273 20.1847 25.2273C19.018 25.2273 17.9915 24.9621 17.1051 24.4318C16.2188 23.9015 15.5256 23.1477 15.0256 22.1705C14.5331 21.1932 14.2831 20.0227 14.2756 18.6591V7.54545H19.1165V17.7955C19.1241 18.8258 19.4006 19.6402 19.946 20.2386C20.4915 20.8371 21.2225 21.1364 22.1392 21.1364C22.7225 21.1364 23.268 21.0038 23.7756 20.7386C24.2831 20.4659 24.6922 20.0644 25.0028 19.5341C25.321 19.0038 25.4763 18.3485 25.4688 17.5682ZM39.0227 14.9091V25H34.1818V7.54545H38.7955V10.625H39C39.3864 9.60985 40.0341 8.80682 40.9432 8.21591C41.8523 7.61742 42.9545 7.31818 44.25 7.31818C45.4621 7.31818 46.5189 7.58333 47.4205 8.11364C48.322 8.64394 49.0227 9.40151 49.5227 10.3864C50.0227 11.3636 50.2727 12.5303 50.2727 13.8864V25H45.4318V14.75C45.4394 13.6818 45.1667 12.8485 44.6136 12.25C44.0606 11.6439 43.2992 11.3409 42.3295 11.3409C41.678 11.3409 41.1023 11.4811 40.6023 11.7614C40.1098 12.0417 39.7235 12.4508 39.4432 12.9886C39.1705 13.5189 39.0303 14.1591 39.0227 14.9091ZM60.5199 25.2841C59.1941 25.2841 57.9934 24.9432 56.9176 24.2614C55.8494 23.572 55.0009 22.5606 54.3722 21.2273C53.7509 19.8864 53.4403 18.2424 53.4403 16.2955C53.4403 14.2955 53.7623 12.6326 54.4062 11.3068C55.0502 9.97348 55.9063 8.97727 56.9744 8.31818C58.0502 7.65152 59.2282 7.31818 60.5085 7.31818C61.4858 7.31818 62.3002 7.48485 62.9517 7.81818C63.6108 8.14394 64.1411 8.55303 64.5426 9.04545C64.9517 9.5303 65.2623 10.0076 65.4744 10.4773H65.6222V1.72727H70.4517V25H65.679V22.2045H65.4744C65.2472 22.6894 64.9252 23.1705 64.5085 23.6477C64.0994 24.1174 63.5653 24.5076 62.9062 24.8182C62.2547 25.1288 61.4593 25.2841 60.5199 25.2841ZM62.054 21.4318C62.8343 21.4318 63.4934 21.2197 64.0312 20.7955C64.5767 20.3636 64.9934 19.7614 65.2812 18.9886C65.5767 18.2159 65.7244 17.3106 65.7244 16.2727C65.7244 15.2348 65.5805 14.3333 65.2926 13.5682C65.0047 12.803 64.5881 12.2121 64.0426 11.7955C63.4972 11.3788 62.8343 11.1705 62.054 11.1705C61.2585 11.1705 60.5881 11.3864 60.0426 11.8182C59.4972 12.25 59.0843 12.8485 58.804 13.6136C58.5237 14.3788 58.3835 15.2652 58.3835 16.2727C58.3835 17.2879 58.5237 18.1856 58.804 18.9659C59.0919 19.7386 59.5047 20.3447 60.0426 20.7841C60.5881 21.2159 61.2585 21.4318 62.054 21.4318ZM83.8182 7.54545V11.1818H73.0455V7.54545H83.8182ZM75.5114 25V6.28409C75.5114 5.01894 75.7576 3.9697 76.25 3.13636C76.75 2.30303 77.4318 1.67803 78.2955 1.26136C79.1591 0.844695 80.1402 0.636362 81.2386 0.636362C81.9811 0.636362 82.6591 0.693181 83.2727 0.806818C83.8939 0.920454 84.3561 1.02273 84.6591 1.11364L83.7955 4.75C83.6061 4.68939 83.3712 4.63257 83.0909 4.57954C82.8182 4.52651 82.5379 4.5 82.25 4.5C81.5379 4.5 81.0417 4.66667 80.7614 5C80.4811 5.32576 80.3409 5.78409 80.3409 6.375V25H75.5114ZM94.0369 25.3409C92.2718 25.3409 90.7453 24.9659 89.4574 24.2159C88.1771 23.4583 87.1884 22.4053 86.4915 21.0568C85.7945 19.7008 85.446 18.1288 85.446 16.3409C85.446 14.5379 85.7945 12.9621 86.4915 11.6136C87.1884 10.2576 88.1771 9.20454 89.4574 8.45454C90.7453 7.69697 92.2718 7.31818 94.0369 7.31818C95.8021 7.31818 97.3248 7.69697 98.6051 8.45454C99.893 9.20454 100.885 10.2576 101.582 11.6136C102.279 12.9621 102.628 14.5379 102.628 16.3409C102.628 18.1288 102.279 19.7008 101.582 21.0568C100.885 22.4053 99.893 23.4583 98.6051 24.2159C97.3248 24.9659 95.8021 25.3409 94.0369 25.3409ZM94.0597 21.5909C94.8627 21.5909 95.5331 21.3636 96.071 20.9091C96.6089 20.447 97.0142 19.8182 97.2869 19.0227C97.5672 18.2273 97.7074 17.322 97.7074 16.3068C97.7074 15.2917 97.5672 14.3864 97.2869 13.5909C97.0142 12.7955 96.6089 12.1667 96.071 11.7045C95.5331 11.2424 94.8627 11.0114 94.0597 11.0114C93.2491 11.0114 92.5672 11.2424 92.0142 11.7045C91.4688 12.1667 91.0559 12.7955 90.7756 13.5909C90.5028 14.3864 90.3665 15.2917 90.3665 16.3068C90.3665 17.322 90.5028 18.2273 90.7756 19.0227C91.0559 19.8182 91.4688 20.447 92.0142 20.9091C92.5672 21.3636 93.2491 21.5909 94.0597 21.5909ZM110.616 1.72727V25H105.776V1.72727H110.616ZM114.494 25V7.54545H119.335V25H114.494ZM116.926 5.29545C116.206 5.29545 115.589 5.05682 115.074 4.57954C114.566 4.0947 114.312 3.51515 114.312 2.84091C114.312 2.17424 114.566 1.60227 115.074 1.125C115.589 0.640151 116.206 0.397726 116.926 0.397726C117.646 0.397726 118.259 0.640151 118.767 1.125C119.282 1.60227 119.54 2.17424 119.54 2.84091C119.54 3.51515 119.282 4.0947 118.767 4.57954C118.259 5.05682 117.646 5.29545 116.926 5.29545ZM131.099 25.3409C129.334 25.3409 127.808 24.9659 126.52 24.2159C125.24 23.4583 124.251 22.4053 123.554 21.0568C122.857 19.7008 122.509 18.1288 122.509 16.3409C122.509 14.5379 122.857 12.9621 123.554 11.6136C124.251 10.2576 125.24 9.20454 126.52 8.45454C127.808 7.69697 129.334 7.31818 131.099 7.31818C132.865 7.31818 134.387 7.69697 135.668 8.45454C136.955 9.20454 137.948 10.2576 138.645 11.6136C139.342 12.9621 139.69 14.5379 139.69 16.3409C139.69 18.1288 139.342 19.7008 138.645 21.0568C137.948 22.4053 136.955 23.4583 135.668 24.2159C134.387 24.9659 132.865 25.3409 131.099 25.3409ZM131.122 21.5909C131.925 21.5909 132.596 21.3636 133.134 20.9091C133.671 20.447 134.077 19.8182 134.349 19.0227C134.63 18.2273 134.77 17.322 134.77 16.3068C134.77 15.2917 134.63 14.3864 134.349 13.5909C134.077 12.7955 133.671 12.1667 133.134 11.7045C132.596 11.2424 131.925 11.0114 131.122 11.0114C130.312 11.0114 129.63 11.2424 129.077 11.7045C128.531 12.1667 128.118 12.7955 127.838 13.5909C127.565 14.3864 127.429 15.2917 127.429 16.3068C127.429 17.322 127.565 18.2273 127.838 19.0227C128.118 19.8182 128.531 20.447 129.077 20.9091C129.63 21.3636 130.312 21.5909 131.122 21.5909Z" fill="#A1C398"/>
<path d="M145.668 25.2955C144.918 25.2955 144.274 25.0303 143.736 24.5C143.205 23.9621 142.94 23.3182 142.94 22.5682C142.94 21.8258 143.205 21.1894 143.736 20.6591C144.274 20.1288 144.918 19.8636 145.668 19.8636C146.395 19.8636 147.031 20.1288 147.577 20.6591C148.122 21.1894 148.395 21.8258 148.395 22.5682C148.395 23.0682 148.266 23.5265 148.009 23.9432C147.759 24.3523 147.429 24.6818 147.02 24.9318C146.611 25.1742 146.16 25.2955 145.668 25.2955Z" fill="#FA7070"/>
</svg>
